<svg width="65" height="69" viewBox="0 0 65 69" fill="none" xmlns="http://www.w3.org/2000/svg">
<path d="M44.3749 34.5H36.4583V26.9167C36.4583 25.9111 36.0412 24.9466 35.2989 24.2356C34.5565 23.5245 33.5497 23.125 32.4999 23.125C31.4501 23.125 30.4433 23.5245 29.701 24.2356C28.9586 24.9466 28.5416 25.9111 28.5416 26.9167V34.5H20.6249C19.5751 34.5 18.5683 34.8995 17.826 35.6106C17.0836 36.3216 16.6666 37.2861 16.6666 38.2917C16.6666 39.2973 17.0836 40.2617 17.826 40.9728C18.5683 41.6839 19.5751 42.0833 20.6249 42.0833H28.5416V49.6667C28.5416 50.6723 28.9586 51.6367 29.701 52.3478C30.4433 53.0589 31.4501 53.4583 32.4999 53.4583C33.5497 53.4583 34.5565 53.0589 35.2989 52.3478C36.0412 51.6367 36.4583 50.6723 36.4583 49.6667V42.0833H44.3749C45.4247 42.0833 46.4315 41.6839 47.1739 40.9728C47.9162 40.2617 48.3333 39.2973 48.3333 38.2917C48.3333 37.2861 47.9162 36.3216 47.1739 35.6106C46.4315 34.8995 45.4247 34.5 44.3749 34.5ZM63.0068 16.6526L47.1735 1.48596C46.8065 1.13318 46.3703 0.853397 45.89 0.662732C45.4097 0.472067 44.8948 0.374282 44.3749 0.375004H12.7083C6.16117 0.375004 0.833252 5.47859 0.833252 11.75V57.25C0.833252 63.5214 6.16117 68.625 12.7083 68.625H52.2916C58.8387 68.625 64.1666 63.5214 64.1666 57.25V19.3333C64.1673 18.8353 64.0653 18.3421 63.8662 17.882C63.6672 17.422 63.3751 17.0041 63.0068 16.6526ZM54.6112 19.3333H50.3124C47.0389 19.3333 44.3749 16.7815 44.3749 13.6458V9.52809L54.6112 19.3333ZM52.2916 61.0417H12.7083C11.6584 61.0417 10.6516 60.6422 9.90929 59.9311C9.16696 59.22 8.74992 58.2556 8.74992 57.25V11.75C8.74992 10.7444 9.16696 9.77997 9.90929 9.06889C10.6516 8.35782 11.6584 7.95834 12.7083 7.95834H40.4166V13.6458C40.4166 18.8745 44.8539 23.125 50.3124 23.125H56.2499V57.25C56.2499 58.2556 55.8329 59.22 55.0906 59.9311C54.3482 60.6422 53.3414 61.0417 52.2916 61.0417Z" fill="white"/>
</svg>
