<svg width="72" height="62" viewBox="0 0 72 62" fill="none" xmlns="http://www.w3.org/2000/svg">
<path d="M44.625 10.8438C47.5341 10.8438 50.324 9.74527 52.3811 7.78981C54.4381 5.83435 55.5938 3.18218 55.5938 0.416748H60.6562C60.6562 3.18218 61.8119 5.83435 63.8689 7.78981C65.926 9.74527 68.7159 10.8438 71.625 10.8438V15.6563C68.7159 15.6563 65.926 16.7549 63.8689 18.7104C61.8119 20.6658 60.6562 23.318 60.6562 26.0834H55.5938C55.5938 23.318 54.4381 20.6658 52.3811 18.7104C50.324 16.7549 47.5341 15.6563 44.625 15.6563V10.8438ZM7.5 16.4584C7.5 14.7566 8.21116 13.1245 9.47703 11.9211C10.7429 10.7178 12.4598 10.0417 14.25 10.0417H37.875V3.62508H14.25C10.6696 3.62508 7.2358 4.97716 4.70406 7.38388C2.17232 9.79059 0.75 13.0548 0.75 16.4584V48.5417C0.75 51.9454 2.17232 55.2096 4.70406 57.6163C7.2358 60.023 10.6696 61.3751 14.25 61.3751H54.75C58.3304 61.3751 61.7642 60.023 64.2959 57.6163C66.8277 55.2096 68.25 51.9454 68.25 48.5417V32.5001H61.5V48.5417C61.5 50.2436 60.7888 51.8757 59.523 53.079C58.2571 54.2824 56.5402 54.9584 54.75 54.9584H14.25C12.4598 54.9584 10.7429 54.2824 9.47703 53.079C8.21116 51.8757 7.5 50.2436 7.5 48.5417V16.4584Z" fill="white"/>
</svg>
