<svg width="30" height="29" viewBox="0 0 30 29" fill="none" xmlns="http://www.w3.org/2000/svg">
<path d="M11.9067 7.96498C13.6153 6.47001 16.3854 6.47001 18.0939 7.96498C19.8025 9.45996 19.8025 11.8838 18.0939 13.3788C17.7966 13.639 17.467 13.8539 17.1165 14.0235C16.0291 14.5498 15.0003 15.4794 15.0003 16.6875V17.7812M28.125 14.5C28.125 21.7487 22.2487 27.625 15 27.625C7.75126 27.625 1.875 21.7487 1.875 14.5C1.875 7.25126 7.75126 1.375 15 1.375C22.2487 1.375 28.125 7.25126 28.125 14.5ZM15 22.1562H15.0109V22.1672H15V22.1562Z" stroke="#2653C7" stroke-width="2" stroke-linecap="round" stroke-linejoin="round"/>
</svg>
