<svg width="24" height="24" viewBox="0 0 24 24" fill="none" xmlns="http://www.w3.org/2000/svg">
<g id="check-circle-fill">
<path id="Vector" d="M12.0142 1.99902C6.49116 1.99902 2.01416 6.47602 2.01416 11.999C2.01416 17.522 6.49116 21.999 12.0142 21.999C17.5372 21.999 22.0142 17.522 22.0142 11.999C22.0142 6.47602 17.5372 1.99902 12.0142 1.99902ZM16.0142 8.99901C16.2702 8.99901 16.5372 9.08502 16.7332 9.28002C17.1232 9.67102 17.1232 10.327 16.7332 10.718L12.9832 14.437C11.8322 15.587 10.0732 15.415 9.17017 14.061L8.17017 12.561C7.86417 12.102 7.99215 11.462 8.45215 11.155C8.91115 10.849 9.55115 10.977 9.85815 11.437L10.8582 12.937C11.0602 13.24 11.3192 13.288 11.5762 13.03L15.2952 9.28002C15.4912 9.08502 15.7582 8.99901 16.0142 8.99901Z" fill="#2653C7"/>
</g>
</svg>
