<svg width="25" height="30" viewBox="0 0 25 30" fill="none" xmlns="http://www.w3.org/2000/svg">
<path d="M23.4375 18.2812V14.4531C23.4375 11.7348 21.2339 9.53125 18.5156 9.53125H16.3281C15.422 9.53125 14.6875 8.79672 14.6875 7.89062V5.70312C14.6875 2.98485 12.4839 0.78125 9.76562 0.78125H7.03125M7.03125 19.375H17.9688M7.03125 23.75H12.5M10.3125 0.78125H3.20312C2.29703 0.78125 1.5625 1.51578 1.5625 2.42187V27.5781C1.5625 28.4842 2.29703 29.2188 3.20312 29.2188H21.7969C22.703 29.2188 23.4375 28.4842 23.4375 27.5781V13.9062C23.4375 6.65751 17.5612 0.78125 10.3125 0.78125Z" stroke="#99AEE4" stroke-width="1.5" stroke-linecap="round" stroke-linejoin="round"/>
</svg>
