<svg width="51" height="50" viewBox="0 0 51 50" fill="none" xmlns="http://www.w3.org/2000/svg">
<path d="M16.9062 29.6875L19.4355 33.7344C20.2921 35.1049 21.7943 35.9375 23.4105 35.9375H27.5895C29.2057 35.9375 30.7079 35.1049 31.5645 33.7344L34.0937 29.6875M5.52002 18.75H15.1788C16.7461 18.75 18.2097 19.5333 19.0791 20.8373L19.4209 21.3502C20.2903 22.6542 21.7539 23.4375 23.3212 23.4375H27.6788C29.2461 23.4375 30.7097 22.6542 31.5791 21.3502L31.9209 20.8373C32.7903 19.5333 34.2539 18.75 35.8212 18.75H45.48M5.52002 18.75C5.30203 19.2975 5.1875 19.8855 5.1875 20.484V25C5.1875 27.5888 7.28617 29.6875 9.875 29.6875H41.125C43.7138 29.6875 45.8125 27.5888 45.8125 25V20.484C45.8125 19.8855 45.698 19.2975 45.48 18.75M5.52002 18.75C5.70956 18.274 5.9773 17.8286 6.31598 17.4334L13.1594 9.44942C14.05 8.41045 15.35 7.8125 16.7184 7.8125H34.2816C35.65 7.8125 36.95 8.41045 37.8406 9.44942L44.684 17.4334C45.0227 17.8286 45.2904 18.274 45.48 18.75M9.875 42.1875H41.125C43.7138 42.1875 45.8125 40.0888 45.8125 37.5V32.0312C45.8125 30.7368 44.7632 29.6875 43.4687 29.6875H7.53125C6.23683 29.6875 5.1875 30.7368 5.1875 32.0312V37.5C5.1875 40.0888 7.28617 42.1875 9.875 42.1875Z" stroke="#DAE3FA" stroke-width="2" stroke-linecap="round" stroke-linejoin="round"/>
</svg>
