<svg width="28" height="29" viewBox="0 0 28 29" fill="none" xmlns="http://www.w3.org/2000/svg">
<path d="M18.1664 21.9108C20.9293 21.5831 23.5935 20.9335 26.1205 20.0007C24.0252 17.6748 22.7498 14.5957 22.7498 11.2188V10.1967C22.75 10.1728 22.7501 10.1489 22.7501 10.125C22.7501 5.29251 18.8326 1.375 14.0001 1.375C9.16763 1.375 5.25012 5.29251 5.25012 10.125L5.24983 11.2188C5.24983 14.5957 3.97448 17.6748 1.87915 20.0007C4.40634 20.9336 7.07075 21.5832 9.83386 21.9109M18.1664 21.9108C16.8001 22.0729 15.4097 22.1562 13.9998 22.1562C12.5902 22.1562 11.1999 22.0729 9.83386 21.9109M18.1664 21.9108C18.3019 22.3329 18.3751 22.7829 18.3751 23.25C18.3751 25.6662 16.4164 27.625 14.0001 27.625C11.5839 27.625 9.62512 25.6662 9.62512 23.25C9.62512 22.7829 9.69832 22.3329 9.83386 21.9109" stroke="#2653C7" stroke-width="2" stroke-linecap="round" stroke-linejoin="round"/>
</svg>
