<svg width="33" height="34" viewBox="0 0 33 34" fill="none" xmlns="http://www.w3.org/2000/svg">
<path d="M20.4283 24.1991C23.0333 23.8807 25.5453 23.2497 27.9279 22.3435C25.9523 20.0841 24.7499 17.093 24.7499 13.8125V12.8197C24.75 12.7965 24.7501 12.7732 24.7501 12.75C24.7501 8.05558 21.0565 4.25 16.5001 4.25C11.9438 4.25 8.25012 8.05558 8.25012 12.75L8.24985 13.8125C8.24985 17.093 7.04737 20.0841 5.07178 22.3435C7.45455 23.2498 9.96672 23.8808 12.5719 24.1992M20.4283 24.1991C19.1401 24.3565 17.8292 24.4375 16.4999 24.4375C15.1707 24.4375 13.86 24.3565 12.5719 24.1992M20.4283 24.1991C20.5561 24.6091 20.6251 25.0462 20.6251 25.5C20.6251 27.8472 18.7783 29.75 16.5001 29.75C14.2219 29.75 12.3751 27.8472 12.3751 25.5C12.3751 25.0463 12.4441 24.6091 12.5719 24.1992" stroke="#2653C7" stroke-width="1.33333" stroke-linecap="round" stroke-linejoin="round"/>
</svg>
