<svg width="31" height="26" viewBox="0 0 31 26" fill="none" xmlns="http://www.w3.org/2000/svg">
<path d="M9.48438 16.2813L11.2549 19.1141C11.8545 20.0734 12.906 20.6563 14.0374 20.6563H16.9626C18.094 20.6563 19.1455 20.0734 19.7451 19.1141L21.5156 16.2813M1.51402 8.625H8.27518C9.37227 8.625 10.3968 9.1733 11.0053 10.0861L11.2447 10.4451C11.8532 11.3579 12.8777 11.9063 13.9748 11.9063H17.0252C18.1223 11.9063 19.1468 11.3579 19.7553 10.4451L19.9947 10.0861C20.6032 9.1733 21.6277 8.625 22.7248 8.625H29.486M1.51402 8.625C1.36142 9.00824 1.28125 9.41983 1.28125 9.83881V13C1.28125 14.8122 2.75032 16.2813 4.5625 16.2813H26.4375C28.2497 16.2813 29.7188 14.8122 29.7188 13V9.83881C29.7188 9.41983 29.6386 9.00824 29.486 8.625M1.51402 8.625C1.64669 8.29178 1.83411 7.97999 2.07119 7.7034L6.8616 2.11459C7.48498 1.38732 8.39503 0.96875 9.35291 0.96875H21.6471C22.605 0.96875 23.515 1.38732 24.1384 2.11459L28.9288 7.7034C29.1659 7.97999 29.3533 8.29178 29.486 8.625M4.5625 25.0313H26.4375C28.2497 25.0313 29.7188 23.5622 29.7188 21.75V17.9219C29.7188 17.0158 28.9842 16.2813 28.0781 16.2813H2.92188C2.01578 16.2813 1.28125 17.0158 1.28125 17.9219V21.75C1.28125 23.5622 2.75032 25.0313 4.5625 25.0313Z" stroke="#2653C7" stroke-width="1.5" stroke-linecap="round" stroke-linejoin="round"/>
</svg>
