<svg width="18" height="18" viewBox="0 0 18 18" fill="none" xmlns="http://www.w3.org/2000/svg">
<path d="M14.0257 12.3486L17.5946 15.9176L16.4161 17.0961L12.8472 13.5271C11.5639 14.5538 9.9365 15.168 8.1665 15.168C4.0265 15.168 0.666504 11.808 0.666504 7.66797C0.666504 3.52797 4.0265 0.167969 8.1665 0.167969C12.3065 0.167969 15.6665 3.52797 15.6665 7.66797C15.6665 9.43797 15.0523 11.0654 14.0257 12.3486ZM12.3538 11.7303C13.3728 10.6801 13.9998 9.24764 13.9998 7.66797C13.9998 4.44505 11.3894 1.83464 8.1665 1.83464C4.94359 1.83464 2.33317 4.44505 2.33317 7.66797C2.33317 10.8909 4.94359 13.5013 8.1665 13.5013C9.74617 13.5013 11.1787 12.8742 12.2288 11.8552L12.3538 11.7303Z" fill="black"/>
</svg>
