<svg width="28" height="29" viewBox="0 0 28 29" fill="none" xmlns="http://www.w3.org/2000/svg">
<path d="M10.4905 2.74603C10.6224 1.95494 11.3068 1.37512 12.1088 1.37512H15.8917C16.6937 1.37512 17.3782 1.95494 17.51 2.74603L17.8214 4.61422C17.9123 5.15971 18.2768 5.61408 18.7606 5.8819C18.8688 5.94177 18.9757 6.00363 19.0814 6.06741C19.5554 6.35364 20.1319 6.44263 20.6504 6.24837L22.425 5.58355C23.1761 5.30219 24.0204 5.60503 24.4214 6.29958L26.3129 9.57564C26.7139 10.2702 26.554 11.1529 25.9348 11.6626L24.4701 12.8684C24.0435 13.2195 23.8321 13.7618 23.8423 14.3142C23.8434 14.3761 23.844 14.438 23.844 14.5001C23.844 14.5622 23.8434 14.6242 23.8423 14.686C23.8321 15.2384 24.0435 15.7807 24.4701 16.1319L25.9348 17.3376C26.554 17.8474 26.7139 18.73 26.3129 19.4246L24.4214 22.7006C24.0204 23.3952 23.1761 23.698 22.425 23.4167L20.6505 22.7519C20.1319 22.5576 19.5554 22.6466 19.0814 22.9328C18.9758 22.9966 18.8688 23.0585 18.7606 23.1183C18.2768 23.3862 17.9123 23.8405 17.8214 24.386L17.51 26.2542C17.3782 27.0453 16.6937 27.6251 15.8917 27.6251H12.1088C11.3068 27.6251 10.6224 27.0453 10.4905 26.2542L10.1792 24.386C10.0883 23.8405 9.72371 23.3862 9.23988 23.1183C9.13171 23.0585 9.02478 22.9966 8.91915 22.9328C8.44515 22.6466 7.86862 22.5576 7.35009 22.7519L5.57549 23.4167C4.82446 23.6981 3.9801 23.3952 3.5791 22.7007L1.68767 19.4246C1.28667 18.7301 1.44658 17.8474 2.06576 17.3377L3.53044 16.1319C3.95701 15.7807 4.16847 15.2384 4.15823 14.686C4.15709 14.6242 4.15651 14.5622 4.15651 14.5001C4.15651 14.438 4.15709 14.3761 4.15823 14.3142C4.16847 13.7618 3.95701 13.2195 3.53044 12.8684L2.06576 11.6626C1.44658 11.1529 1.28667 10.2702 1.68767 9.57566L3.5791 6.29961C3.9801 5.60505 4.82446 5.30221 5.57549 5.58357L7.35007 6.24839C7.8686 6.44265 8.44513 6.35365 8.91913 6.06742C9.02477 6.00364 9.1317 5.94178 9.23988 5.8819C9.72371 5.61408 10.0883 5.15971 10.1792 4.61422L10.4905 2.74603Z" stroke="#2653C7" stroke-width="2" stroke-linecap="round" stroke-linejoin="round"/>
<path d="M18.3749 14.5C18.3749 16.9163 16.4162 18.875 13.9999 18.875C11.5837 18.875 9.62493 16.9163 9.62493 14.5C9.62493 12.0838 11.5837 10.125 13.9999 10.125C16.4162 10.125 18.3749 12.0838 18.3749 14.5Z" stroke="#2653C7" stroke-width="2" stroke-linecap="round" stroke-linejoin="round"/>
</svg>
